<?xml version="1.0" encoding="utf-8"?>
<!-- Svg Vector Icons : http://www.onlinewebfonts.com/icon -->
<!DOCTYPE svg PUBLIC "-//W3C//DTD SVG 1.1//EN" "http://www.w3.org/Graphics/SVG/1.1/DTD/svg11.dtd">
<svg version="1.1" xmlns="http://www.w3.org/2000/svg" xmlns:xlink="http://www.w3.org/1999/xlink" x="0px" y="0px" viewBox="0 0 1000 1000" enable-background="new 0 0 1000 1000" xml:space="preserve">
<metadata> Svg Vector Icons : http://www.onlinewebfonts.com/icon </metadata>
<g><g transform="translate(0.000000,511.000000) scale(0.100000,-0.100000)"><path d="M8760,4954.8c-89.6-43.6-482.2-422.5-1844-1786.6L5184.6,1434.5l397.3-395l395-397.3l1742.9,1743c1224,1224,1756.7,1770.5,1788.9,1839.4c71.2,147,55.1,372-39,523.6C9322.6,4987,9010.3,5078.8,8760,4954.8z"/><path d="M4247.7,1002.8c-718.8-183.7-976-271-1389.3-473c-535-259.5-982.8-576.4-1400.8-996.6C966.1-956,649.2-1472.7,500-2023.8c-43.6-158.4-52.8-245.7-52.8-544.2c0-307.7,6.9-378.9,52.8-528.2c181.4-581,631.5-1051.7,1155.1-1203.3c369.7-107.9,796.8-87.3,1680.9,78.1c930,172.2,1093.1,192.9,1612.1,192.9c493.7,0,737.1-29.9,1129.8-137.8c388.1-103.3,874.9-312.3,1228.6-528.2c163-98.8,261.8-119.4,358.2-68.9C7774.9-4706,7830-4621,7830-4506.2c0,82.7-13.8,117.1-73.5,181.4c-158.4,165.3-888.7,516.7-1370.9,656.7c-587.9,172.2-829,254.9-1012.7,342.2c-672.8,326.1-1297.5,950.7-1605.2,1609.7c-291.7,620-321.5,1272.2-80.4,1685.5c59.7,103.3,257.2,310,293.9,310c13.8,0,220.5-195.2,459.3-434l434-434L4847-763.1c-147-996.6,298.5-1777.4,1269.9-2229.8c544.2-254.9,1347.9-424.8,2002.4-424.8c291.6,0,339.9,25.3,438.6,225c57.4,114.8,64.3,160.8,71.2,395c13.8,413.3-107.9,980.6-231.9,1097.7c-107.9,101.1-174.6,101.1-496,4.6c-482.2-144.7-739.4-188.3-1207.9-199.8c-466.2-13.8-700.4,16.1-1010.4,124c-181.4,64.3-183.7,64.3-227.4,179.1c-55.1,144.7-78.1,592.5-39,799.1c16,78.1,85,372,156.1,654.5l128.6,512.1l-399.6,399.6l-399.6,397.3L4247.7,1002.8z M3014.5-173c-57.4-179.1-66.6-716.5-18.4-987.4c105.6-599.4,397.3-1182.6,856.5-1715.4c144.7-165.3,431.7-434,590.2-551.1c45.9-32.1,43.6-32.1-11.5-45.9c-135.5-27.5-530.5-64.3-688.9-64.3c-443.2,2.3-891,298.5-1194.1,792.3c-231.9,376.6-328.4,721.1-328.4,1164.3c2.3,509.8,156.2,900.2,496,1246.9c96.5,101,303.1,268.7,328.4,268.7C3046.7-65,3032.9-113.3,3014.5-173z M1678-1181.1c-36.7-192.9-29.9-686.6,9.2-897.9c107.9-574.1,422.5-1150.5,829-1517.9c199.8-179.1,204.4-174.5-169.9-199.8c-535.1-36.7-884.1,126.3-1152.8,541.9c-296.2,459.3-252.6,1083.9,121.7,1703.9c114.8,188.3,362.8,525.9,378.9,509.8C1698.7-1045.6,1691.8-1107.6,1678-1181.1z"/></g></g>
</svg>