<?xml version="1.0" standalone="no"?>
<!DOCTYPE svg PUBLIC "-//W3C//DTD SVG 20010904//EN"
 "http://www.w3.org/TR/2001/REC-SVG-20010904/DTD/svg10.dtd">
<svg version="1.0" xmlns="http://www.w3.org/2000/svg"
 width="1280.000000pt" height="1215.000000pt" viewBox="0 0 1280.000000 1215.000000"
 preserveAspectRatio="xMidYMid meet">
<metadata>
Created by potrace 1.15, written by Peter Selinger 2001-2017
</metadata>
<g transform="translate(0.000000,1215.000000) scale(0.100000,-0.100000)"
fill="#000000" stroke="none">
<path d="M120 6095 l0 -5915 6245 0 6245 0 0 5915 0 5915 -6245 0 -6245 0 0
-5915z m11140 5468 c-187 -30 -1012 -150 -2284 -333 -494 -71 -900 -131 -902
-133 -2 -2 -7 -2234 -10 -4960 l-7 -4956 24 -5 c13 -4 445 -74 959 -156 2037
-327 2152 -346 2110 -350 -32 -3 27 -17 120 -29 36 -4 -2144 -8 -4845 -8
-2701 0 -4885 3 -4855 8 70 10 124 26 95 29 -11 1 -2 6 20 12 53 12 2777 568
2787 568 5 0 8 2227 8 4949 l0 4949 -72 10 c-40 6 -129 18 -198 28 -214 29
-2408 343 -2535 363 -119 19 -66 19 4745 19 2676 -1 4854 -3 4840 -5z m-9690
-1093 c107 -12 337 -36 510 -55 173 -19 695 -75 1160 -125 465 -50 854 -92
866 -95 18 -4 22 -14 28 -81 8 -99 8 -3406 0 -3467 l-6 -45 -147 -1 c-80 -1
-723 -10 -1429 -22 -706 -11 -1287 -18 -1290 -14 -11 10 -13 3814 -3 3858 14
57 36 78 80 72 20 -3 124 -14 231 -25z m9980 -1762 c0 -986 -3 -1870 -7 -1964
l-6 -172 -251 -6 c-138 -3 -813 -7 -1499 -9 -1376 -4 -1270 -9 -1283 60 -8 44
4 3402 13 3453 10 58 32 88 72 94 33 5 553 65 2191 251 316 36 604 69 640 74
36 5 80 9 98 10 l32 1 0 -1792z m-7415 -3210 c7 -120 3 -3474 -5 -3482 -5 -4
-2750 -487 -2837 -498 -29 -4 -32 -2 -36 31 -10 67 -5 3795 4 3836 20 82 -77
70 1020 126 541 27 1137 58 1324 68 187 10 381 19 432 20 l91 1 7 -102z m6010
7 c748 -19 1368 -35 1378 -35 16 0 17 -101 17 -1971 l0 -1971 -42 6 c-24 3
-691 94 -1483 201 -792 108 -1454 198 -1472 201 -25 5 -32 11 -36 37 -3 18 -6
807 -6 1753 -1 1504 1 1726 14 1757 24 58 40 64 162 60 60 -2 720 -19 1468
-38z m-8508 -4841 c-3 -3 -12 -4 -19 -1 -8 3 -5 6 6 6 11 1 17 -2 13 -5z
m9586 -1 c-7 -2 -19 -2 -25 0 -7 3 -2 5 12 5 14 0 19 -2 13 -5z m-9730 -30
c-7 -2 -19 -2 -25 0 -7 3 -2 5 12 5 14 0 19 -2 13 -5z m9915 0 c-10 -2 -26 -2
-35 0 -10 3 -2 5 17 5 19 0 27 -2 18 -5z"/>
</g>
</svg>
